<svg id="Capa_1" data-name="Capa 1" xmlns="http://www.w3.org/2000/svg" viewBox="0 0 891.28 611.55"><defs><style>.cls-1{fill:#fcdec0;}.cls-2{fill:#cbb292;}.cls-3{fill:#7f6e5d;}.cls-4{font-size:73.42px;fill:#1d1d1b;font-family:Roboto-Regular, Roboto;letter-spacing:0.21em;}.cls-5{letter-spacing:0.25em;}.cls-6{letter-spacing:0.25em;}</style></defs><circle class="cls-1" cx="431.82" cy="305.78" r="305.78"/><polygon class="cls-2" points="438.85 324.88 438.85 341.92 194.6 341.92 214.65 325.86 215.85 324.88 438.85 324.88"/><polygon class="cls-2" points="321.73 236.71 410 324.88 411.75 327.99 426.73 329.09 425.11 312.22 421.81 312.56 334.85 225.72 321.73 236.71"/><polygon class="cls-2" points="332.31 230.14 332.31 337.66 315.26 337.66 315.26 245.69 332.31 230.14"/><path class="cls-3" d="M287.62,314.13l-229,192.12-1.15,1V544.6H304.67V299.81Zm0,209.16H71.51l19.13-16.06,1.15-1L287.62,342Z" transform="translate(134.19 -181.37)"/><polygon class="cls-2" points="661.1 324.88 662.31 325.86 682.35 341.92 438.1 341.92 438.1 324.88 661.1 324.88"/><polygon class="cls-2" points="542.1 225.72 455.15 312.56 451.85 312.22 450.22 329.09 465.2 327.99 466.95 324.88 555.23 236.71 542.1 225.72"/><polygon class="cls-2" points="561.69 245.69 561.69 337.66 544.64 337.66 544.64 230.14 561.69 245.69"/><path class="cls-3" d="M303.91,299.81V544.6H551.1V507.23l-1.15-1L321,314.13ZM321,342,516.79,506.25l1.15,1,19.13,16.06H321Z" transform="translate(134.19 -181.37)"/><text class="cls-4" transform="translate(251.63 446.05)">V<tspan class="cls-5" x="62.09" y="0">ARGAS</tspan><tspan class="cls-6"><tspan x="-251.63" y="88.1">CONSTRUCCIONES</tspan></tspan></text><rect class="cls-3" x="431.82" y="311.11" width="18.08" height="44.59"/></svg>