<svg id="Capa_1" data-name="Capa 1" xmlns="http://www.w3.org/2000/svg" viewBox="0 0 500.21 452"><defs><style>.cls-1{fill:#ebcc86;}.cls-2{fill:#cbb292;}.cls-3{fill:#7f6e5d;}.cls-4{font-size:44.41px;fill:#1d1d1b;font-family:Roboto-Regular, Roboto;letter-spacing:0.21em;}.cls-5{letter-spacing:0.25em;}.cls-6{letter-spacing:0.25em;}.cls-7{letter-spacing:0.24em;}</style></defs><circle class="cls-1" cx="239.36" cy="226" r="226"/><polygon class="cls-2" points="244.56 240.12 244.56 252.71 64.03 252.71 78.85 240.84 79.74 240.12 244.56 240.12"/><polygon class="cls-2" points="157.99 174.95 223.23 240.12 224.53 242.41 235.6 243.23 234.4 230.76 231.96 231.01 167.69 166.83 157.99 174.95"/><polygon class="cls-2" points="165.81 170.09 165.81 249.56 153.21 249.56 153.21 181.59 165.81 170.09"/><path class="cls-3" d="M290.23,374.71,121,516.71l-.85.72v27.63H302.83V364.13Zm0,154.6H130.51l14.14-11.88.85-.72L290.23,395.28Z" transform="translate(-58.28 -276.59)"/><polygon class="cls-2" points="408.82 240.12 409.71 240.84 424.52 252.71 244 252.71 244 240.12 408.82 240.12"/><polygon class="cls-2" points="320.87 166.83 256.6 231.01 254.16 230.76 252.96 243.23 264.03 242.41 265.32 240.12 330.57 174.95 320.87 166.83"/><polygon class="cls-2" points="335.35 181.59 335.35 249.56 322.75 249.56 322.75 170.09 335.35 181.59"/><path class="cls-3" d="M302.28,364.13V545.06H485V517.43l-.85-.72-169.24-142Zm12.6,31.15L459.61,516.71l.85.72,14.15,11.88H314.88Z" transform="translate(-58.28 -276.59)"/><text class="cls-4" transform="translate(132.76 334.79)">V<tspan class="cls-5" x="37.56" y="0">ARGAS</tspan><tspan class="cls-6"><tspan x="-132.76" y="53.29">CO</tspan><tspan class="cls-7" x="-52.16" y="53.29">N</tspan><tspan x="-10.42" y="53.29">TRUCCIONES</tspan></tspan></text><rect class="cls-3" x="241.02" y="238.3" width="6.67" height="16.44"/></svg>